<svg version="1.1" id="Layer_1" xmlns="http://www.w3.org/2000/svg" xmlns:xlink="http://www.w3.org/1999/xlink" x="0px" y="0px"
	 viewBox="0 0 512 512" style="enable-background:new 0 0 512 512;" xml:space="preserve">
<circle style="fill:#366695;" cx="256" cy="256" r="256"/>
<path style="fill:#273B7A;" d="M128.245,383.755l128.238,128.238C397.645,511.733,512,397.224,512,256
	c0-22.573-2.934-44.458-8.42-65.308L398.222,85.333L128.245,383.755z"/>
<path style="fill:#71E2EF;" d="M138.199,387.879H373.8c7.775,0,14.079-6.303,14.079-14.079V138.199
	c0-7.775-6.303-14.077-14.079-14.077H138.199c-7.775,0-14.077,6.303-14.077,14.077V373.8
	C124.121,381.576,130.424,387.879,138.199,387.879z"/>
<path style="fill:#38C6D9;" d="M373.8,124.121H256.286v263.758H373.8c7.775,0,14.079-6.303,14.079-14.079V138.2
	C387.879,130.424,381.576,124.121,373.8,124.121z"/>
<path style="fill:#B3F1F4;" d="M138.199,124.121c-7.775,0-14.077,6.303-14.077,14.079v235.601c0,7.775,6.303,14.079,14.079,14.079
	h89.643V124.121H138.199z"/>
<path style="fill:#E03A00;" d="M142.222,199.111L142.222,199.111c-15.71,0-28.444-12.734-28.444-28.444V85.333h56.889v85.333
	C170.667,186.377,157.932,199.111,142.222,199.111z"/>
<path style="fill:#FFC61B;" d="M199.111,199.111L199.111,199.111c-15.71,0-28.444-12.734-28.444-28.444V85.333h56.889v85.333
	C227.556,186.377,214.821,199.111,199.111,199.111z"/>
<path style="fill:#E03A00;" d="M256,199.111L256,199.111c-15.71,0-28.444-12.734-28.444-28.444V85.333h56.889v85.333
	C284.444,186.377,271.71,199.111,256,199.111z"/>
<g>
	<path style="fill:#940030;" d="M256.288,85.333v113.764c15.575-0.157,28.157-12.819,28.157-28.431V85.333H256.288z"/>
	<path style="fill:#940030;" d="M369.778,199.111L369.778,199.111c-15.71,0-28.444-12.734-28.444-28.444V85.333h56.889v85.333
		C398.222,186.377,385.488,199.111,369.778,199.111z"/>
</g>
<path style="fill:#FF7F4F;" d="M312.889,199.111L312.889,199.111c-15.71,0-28.444-12.734-28.444-28.444V85.333h56.889v85.333
	C341.333,186.377,328.599,199.111,312.889,199.111z"/>
<g>
</g>
<g>
</g>
<g>
</g>
<g>
</g>
<g>
</g>
<g>
</g>
<g>
</g>
<g>
</g>
<g>
</g>
<g>
</g>
<g>
</g>
<g>
</g>
<g>
</g>
<g>
</g>
<g>
</g>
</svg>
